<svg xmlns="http://www.w3.org/2000/svg" aria-hidden="true" style="position:absolute;width:0;height:0;overflow:hidden">
  <defs>
    <symbol id="icon-order" viewBox="0 0 48 32">
      <path fill="#ecd979" d="M40.166 18.934c-.26-1.954-.43-3.7-.506-5.234-.034-1.56.026-2.91.178-4.05L1.898 31.554.1 28.446 38.042 6.54a32.893 32.893 0 0 1-3.782-2.027l.142.083a70.574 70.574 0 0 1-4.413-3.11l.177.129L32.444.299c4.812 2.024 9.214 3.036 13.204 3.034l.77 1.332c-2.024 3.406-3.35 7.724-3.974 12.954l-2.28 1.314z" style="fill:var(--color1, #ecd979)"/>
    </symbol>
    <symbol id="icon-header-logo" viewBox="0 0 35 32">
      <path fill="#ecd979" d="M35.152 31.565h-1.098v-1.112h1.098v1.112z" style="fill:var(--color1, #ecd979)"/>
      <path fill="#ecd979" d="M34.055 31.565h-1.098v-1.112h1.098v1.112zm-4.391 0h-1.098v-1.112h1.098v1.112zm-1.098 0h-1.098v-1.112h1.098v1.112zm-1.098 0H26.37v-1.112h1.098v1.112zm-6.588 0h-1.098v-1.112h1.098v1.112zm-6.586 0h-1.098v-1.112h1.098v1.112zm-6.588 0H6.608v-1.112h1.098v1.112zm-1.097 0H5.511v-1.112h1.097v1.112zm-1.098 0H4.413v-1.112h1.098v1.112zm-4.391 0H.022v-1.112H1.12v1.112zm34.032-1.113h-1.098v-1.113h1.098v1.113zm-4.391 0h-1.097v-1.113h1.098v1.113zm-1.097 0h-1.098v-1.113h1.098v1.113zm-1.098 0h-1.098v-1.113h1.098v1.113zm-7.686 0h-1.098v-1.113h1.098v1.113z" style="fill:var(--color1, #ecd979)"/>
      <path fill="#ecd979" d="M19.783 30.452h-1.098v-1.113h1.098v1.113zm-4.391 0h-1.098v-1.113h1.098v1.113zM14.294 30.452h-1.098v-1.113h1.098v1.113zm-7.685 0H5.511v-1.113h1.097v1.113zm-1.098 0H4.413v-1.113h1.098v1.113zm-1.097 0H3.316v-1.113h1.098v1.113zm27.446-1.113h-1.098v-1.113h1.098v1.112zm-1.099 0h-1.097v-1.113h1.098v1.112zm-1.097 0h-1.098v-1.113h1.098v1.112zm-8.784 0h-1.098v-1.113h1.098v1.112z" style="fill:var(--color1, #ecd979)"/>
      <path fill="#ecd979" d="M19.783 29.339h-1.098v-1.113h1.098v1.112zM18.685 29.339h-1.098v-1.113h1.098v1.112zm-2.195 0h-1.098v-1.113h1.098v1.112z" style="fill:var(--color1, #ecd979)"/>
      <path fill="#ecd979" d="M15.392 29.339h-1.098v-1.113h1.098v1.112z" style="fill:var(--color1, #ecd979)"/>
      <path fill="#ecd979" d="M14.294 29.339h-1.098v-1.113h1.098v1.112zm-8.783 0H4.413v-1.113h1.098v1.112zm-1.097 0H3.316v-1.113h1.098v1.112zm-1.099 0H2.216v-1.113h1.098v1.112zm29.643-1.113H31.86v-1.114h1.098v1.114zM31.86 28.226h-1.098v-1.114h1.098v1.114zm-1.099 0h-1.097v-1.114h1.098v1.114zm-5.489 0h-1.098v-1.114h1.098v1.114zm-1.098 0h-1.098v-1.114h1.098v1.114zm-1.097 0h-1.098v-1.114h1.098v1.114zm-3.294 0h-1.098v-1.114h1.098v1.114zM18.685 28.226h-1.098v-1.114h1.098v1.114zm-2.195 0h-1.098v-1.114h1.098v1.114z" style="fill:var(--color1, #ecd979)"/>
      <path fill="#ecd979" d="M15.392 28.226h-1.098v-1.114h1.098v1.114zm-3.294 0H11v-1.114h1.098v1.114zm-1.098 0H9.902v-1.114H11v1.114zm-1.098 0H8.804v-1.114h1.098v1.114zm-5.488 0H3.316v-1.114h1.098v1.114zm-1.099 0H2.216v-1.114h1.098v1.114z" style="fill:var(--color1, #ecd979)"/>
      <path fill="#ecd979" d="M2.218 28.226H1.12v-1.114h1.098v1.114zm31.837-1.113h-1.098V26h1.098v1.113z" style="fill:var(--color1, #ecd979)"/>
      <path fill="#ecd979" d="M32.958 27.113H31.86V26h1.098v1.113zM31.86 27.113h-1.098V26h1.098v1.113zm-7.686 0h-1.098V26h1.098v1.113zm-1.097 0h-1.098V26h1.098v1.113zm-1.099 0H20.88V26h1.098v1.113zm-3.293 0h-1.098V26h1.098v1.113zm-2.195 0h-1.098V26h1.098v1.113zm-3.294 0h-1.098V26h1.098v1.113zm-1.098 0H11V26h1.098v1.113zm-1.098 0H9.902V26H11v1.113zm-7.685 0H2.216V26h1.098v1.113z" style="fill:var(--color1, #ecd979)"/>
      <path fill="#ecd979" d="M2.218 27.113H1.12V26h1.098v1.113zM1.12 27.113H.022V26H1.12v1.113zM34.055 26h-1.098v-1.113h1.098V26z" style="fill:var(--color1, #ecd979)"/>
      <path fill="#ecd979" d="M32.958 26H31.86v-1.113h1.098V26zm-9.881 0h-1.098v-1.113h1.098V26zm-1.099 0H20.88v-1.113h1.098V26zM20.88 26h-1.098v-1.113h1.098V26zm-6.586 0h-1.098v-1.113h1.098V26zm-1.098 0h-1.098v-1.113h1.098V26zm-1.098 0H11v-1.113h1.098V26zm-9.88 0H1.12v-1.113h1.098V26zM1.12 26H.022v-1.113H1.12V26zm32.935-1.113h-1.098v-1.114h1.098v1.114zm-5.489 0h-1.098v-1.114h1.098v1.114zm-9.881 0h-1.098v-1.114h1.098v1.114zm-2.195 0h-1.098v-1.114h1.098v1.114zm-9.881 0H5.511v-1.114h1.097v1.114zm-5.489 0H.022v-1.114H1.12v1.114zm27.446-1.113h-1.098v-1.112h1.098v1.112zm-1.098 0H26.37v-1.112h1.098v1.112zm-7.685 0h-1.098v-1.112h1.098v1.112z" style="fill:var(--color1, #ecd979)"/>
      <path fill="#ecd979" d="M18.685 23.774h-1.098v-1.112h1.098v1.112zm-2.195 0h-1.098v-1.112h1.098v1.112z" style="fill:var(--color1, #ecd979)"/>
      <path fill="#ecd979" d="M15.392 23.774h-1.098v-1.112h1.098v1.112zm-7.686 0H6.608v-1.112h1.098v1.112zm-1.097 0H5.511v-1.112h1.097v1.112zm21.957-1.113h-1.098v-1.113h1.098v1.113zm-1.098 0H26.37v-1.113h1.098v1.113zm-1.098 0h-1.098v-1.113h1.098v1.113zm-5.49 0h-1.098v-1.113h1.098v1.113z" style="fill:var(--color1, #ecd979)"/>
      <path fill="#ecd979" d="M19.783 22.661h-1.098v-1.113h1.098v1.113zm-4.391 0h-1.098v-1.113h1.098v1.113zM14.294 22.661h-1.098v-1.113h1.098v1.113zm-5.489 0H7.707v-1.113h1.098v1.113zm-1.099 0H6.608v-1.113h1.098v1.113zm-1.097 0H5.511v-1.113h1.097v1.113zm20.859-1.113H26.37v-1.113h1.098v1.112zm-1.098 0h-1.098v-1.113h1.098v1.112zm-4.392 0H20.88v-1.113h1.098v1.112zM20.88 21.548h-1.098v-1.113h1.098v1.112zm-6.586 0h-1.098v-1.113h1.098v1.112zm-1.098 0h-1.098v-1.113h1.098v1.112zm-4.391 0H7.707v-1.113h1.098v1.112zm-1.099 0H6.608v-1.113h1.098v1.112zm24.154-1.113h-1.098v-1.114h1.098v1.114zm-1.099 0h-1.097v-1.114h1.098v1.114zm-1.097 0h-1.098v-1.114h1.098v1.114zm-3.294 0h-1.098v-1.114h1.098v1.114zm-3.293 0h-1.098v-1.114h1.098v1.114z" style="fill:var(--color1, #ecd979)"/>
      <path fill="#ecd979" d="M21.978 20.435H20.88v-1.114h1.098v1.114zm-8.782 0h-1.098v-1.114h1.098v1.114zm-1.098 0H11v-1.114h1.098v1.114zm-3.293 0H7.707v-1.114h1.098v1.114zm-3.294 0H4.413v-1.114h1.098v1.114zm-1.097 0H3.316v-1.114h1.098v1.114zm-1.099 0H2.216v-1.114h1.098v1.114zm31.837-1.113h-1.098v-1.113h1.098v1.113zm-4.391 0h-1.097v-1.113h1.098v1.113zm-1.097 0h-1.098v-1.113h1.098v1.113zm-1.098 0h-1.098v-1.113h1.098v1.113zm-4.392 0h-1.098v-1.113h1.098v1.113zm-1.097 0h-1.098v-1.113h1.098v1.113zm-10.979 0H11v-1.113h1.098v1.113zm-1.098 0H9.902v-1.113H11v1.113zm-4.391 0H5.511v-1.113h1.097v1.113zm-1.098 0H4.413v-1.113h1.098v1.113zm-1.097 0H3.316v-1.113h1.098v1.113zm30.738-1.114h-1.098v-1.112h1.098v1.112z" style="fill:var(--color1, #ecd979)"/>
      <path fill="#ecd979" d="M34.055 18.208h-1.098v-1.112h1.098v1.112zm-4.391 0h-1.098v-1.112h1.098v1.112zm-1.098 0h-1.098v-1.112h1.098v1.112zm-1.098 0H26.37v-1.112h1.098v1.112zm-2.196 0h-1.098v-1.112h1.098v1.112zm-1.098 0h-1.098v-1.112h1.098v1.112zm-6.586 0H16.49v-1.112h1.098v1.112zm-6.588 0H9.902v-1.112H11v1.112zm-1.098 0H8.804v-1.112h1.098v1.112zm-2.196 0H6.608v-1.112h1.098v1.112zm-1.097 0H5.511v-1.112h1.097v1.112zm-1.098 0H4.413v-1.112h1.098v1.112zm-4.413-1.112H0v-1.114h1.098v1.114zm1.12 0H1.12v-1.114h1.098v1.114zm-1.12 1.112H0v-1.112h1.098v1.112zm0-2.226H0v-1.113h1.098v1.113zm34.054 1.114h-1.098v-1.114h1.098v1.114z" style="fill:var(--color1, #ecd979)"/>
      <path fill="#ecd979" d="M34.055 17.096h-1.098v-1.114h1.098v1.114z" style="fill:var(--color1, #ecd979)"/>
      <path fill="#ecd979" d="M32.958 17.096H31.86v-1.114h1.098v1.114zm-14.273 0h-1.098v-1.114h1.098v1.114z" style="fill:var(--color1, #ecd979)"/>
      <path fill="#ecd979" d="M17.588 17.096H16.49v-1.114h1.098v1.114zm-1.098 0h-1.098v-1.114h1.098v1.114zm18.662-1.114h-1.098v-1.113h1.098v1.113z" style="fill:var(--color1, #ecd979)"/>
      <path fill="#ecd979" d="M34.055 15.982h-1.098v-1.113h1.098v1.113zm-4.391 0h-1.098v-1.113h1.098v1.113zm-1.098 0h-1.098v-1.113h1.098v1.113zm-1.098 0H26.37v-1.113h1.098v1.113zm-2.196 0h-1.098v-1.113h1.098v1.113zm-1.098 0h-1.098v-1.113h1.098v1.113zm-6.586 0H16.49v-1.113h1.098v1.113zm-6.588 0H9.902v-1.113H11v1.113zm-1.098 0H8.804v-1.113h1.098v1.113zm-2.196 0H6.608v-1.113h1.098v1.113zm-1.097 0H5.511v-1.113h1.097v1.113zm-1.098 0H4.413v-1.113h1.098v1.113zm29.641-1.112h-1.098v-1.113h1.098v1.112zm-4.391 0h-1.097v-1.113h1.098v1.112zm-1.097 0h-1.098v-1.113h1.098v1.112zm-1.098 0h-1.098v-1.113h1.098v1.112zm-4.392 0h-1.098v-1.113h1.098v1.112zm-1.097 0h-1.098v-1.113h1.098v1.112zm-10.979 0H11v-1.113h1.098v1.112zm-1.098 0H9.902v-1.113H11v1.112zm-4.391 0H5.511v-1.113h1.097v1.112zm-1.098 0H4.413v-1.113h1.098v1.112zm-1.097 0H3.316v-1.113h1.098v1.112zm27.446-1.113h-1.098v-1.114h1.098v1.114zM30.761 13.757h-1.097v-1.114h1.098v1.114zm-1.097 0h-1.098v-1.114h1.098v1.114zm-3.294 0h-1.098v-1.114h1.098v1.114zm-3.293 0h-1.098v-1.114h1.098v1.114zm-1.099 0H20.88v-1.114h1.098v1.114zm-8.782 0h-1.098v-1.114h1.098v1.114zm-1.098 0H11v-1.114h1.098v1.114zm-3.293 0H7.707v-1.114h1.098v1.114zm-3.294 0H4.413v-1.114h1.098v1.114zm-1.097 0H3.316v-1.114h1.098v1.114zm-1.099 0H2.216v-1.114h1.098v1.114zm24.153-1.114H26.37V11.53h1.098v1.113zm-1.098 0h-1.098V11.53h1.098v1.113zm-4.392 0H20.88V11.53h1.098v1.113z" style="fill:var(--color1, #ecd979)"/>
      <path fill="#ecd979" d="M20.88 12.643h-1.098V11.53h1.098v1.113zm-6.586 0h-1.098V11.53h1.098v1.113zm-1.098 0h-1.098V11.53h1.098v1.113zm-4.391 0H7.707V11.53h1.098v1.113zm-1.099 0H6.608V11.53h1.098v1.113zm20.86-1.113h-1.098v-1.113h1.098v1.113zm-1.098 0H26.37v-1.113h1.098v1.113zm-1.098 0h-1.098v-1.113h1.098v1.113zm-5.49 0h-1.098v-1.113h1.098v1.113z" style="fill:var(--color1, #ecd979)"/>
      <path fill="#ecd979" d="M19.783 11.53h-1.098v-1.113h1.098v1.113zm-4.391 0h-1.098v-1.113h1.098v1.113z" style="fill:var(--color1, #ecd979)"/>
      <path fill="#ecd979" d="M14.294 11.53h-1.098v-1.113h1.098v1.113zm-5.489 0H7.707v-1.113h1.098v1.113zm-1.099 0H6.608v-1.113h1.098v1.113zm-1.097 0H5.511v-1.113h1.097v1.113zm21.957-1.112h-1.098V9.304h1.098v1.114zm-1.098 0H26.37V9.304h1.098v1.114zm-7.685 0h-1.098V9.304h1.098v1.114zM18.685 10.418h-1.098V9.304h1.098v1.114zm-2.195 0h-1.098V9.304h1.098v1.114z" style="fill:var(--color1, #ecd979)"/>
      <path fill="#ecd979" d="M15.392 10.418h-1.098V9.304h1.098v1.114zm-7.686 0H6.608V9.304h1.098v1.114zm-1.097 0H5.511V9.304h1.097v1.114zm21.957-1.114h-1.098V8.192h1.098v1.112zm-9.881 0h-1.098V8.192h1.098v1.112zm-2.195 0h-1.098V8.192h1.098v1.112zm-9.881 0H5.511V8.192h1.097v1.112zm27.446-1.112h-1.098V7.078h1.098v1.113zm-32.935 0H.022V7.078H1.12v1.113zM34.055 7.078h-1.098V5.964h1.098v1.114z" style="fill:var(--color1, #ecd979)"/>
      <path fill="#ecd979" d="M32.958 7.078H31.86V5.964h1.098v1.114zm-9.881 0h-1.098V5.964h1.098v1.114zm-1.099 0H20.88V5.964h1.098v1.114zM20.88 7.078h-1.098V5.964h1.098v1.114zm-6.586 0h-1.098V5.964h1.098v1.114zm-1.098 0h-1.098V5.964h1.098v1.114zm-1.098 0H11V5.964h1.098v1.114zm-9.88 0H1.12V5.964h1.098v1.114z" style="fill:var(--color1, #ecd979)"/>
      <path fill="#ecd979" d="M1.12 7.078H.022V5.964H1.12v1.114zm32.935-1.112h-1.098V4.852h1.098v1.114z" style="fill:var(--color1, #ecd979)"/>
      <path fill="#ecd979" d="M32.958 5.966H31.86V4.852h1.098v1.114zM31.86 5.966h-1.098V4.852h1.098v1.114zm-7.686 0h-1.098V4.852h1.098v1.114zm-1.097 0h-1.098V4.852h1.098v1.114zm-1.099 0H20.88V4.852h1.098v1.114zm-3.293 0h-1.098V4.852h1.098v1.114zm-2.195 0h-1.098V4.852h1.098v1.114zm-3.294 0h-1.098V4.852h1.098v1.114zm-1.098 0H11V4.852h1.098v1.114zm-1.098 0H9.902V4.852H11v1.114zm-7.685 0H2.216V4.852h1.098v1.114z" style="fill:var(--color1, #ecd979)"/>
      <path fill="#ecd979" d="M2.218 5.966H1.12V4.852h1.098v1.114zM1.12 5.966H.022V4.852H1.12v1.114zm31.838-1.114H31.86V3.739h1.098v1.113zM31.86 4.852h-1.098V3.739h1.098v1.113zm-1.099 0h-1.097V3.739h1.098v1.113zm-5.489 0h-1.098V3.739h1.098v1.113zm-1.098 0h-1.098V3.739h1.098v1.113zm-1.097 0h-1.098V3.739h1.098v1.113zm-3.294 0h-1.098V3.739h1.098v1.113zM18.685 4.852h-1.098V3.739h1.098v1.113zm-2.195 0h-1.098V3.739h1.098v1.113z" style="fill:var(--color1, #ecd979)"/>
      <path fill="#ecd979" d="M15.392 4.852h-1.098V3.739h1.098v1.113zm-3.294 0H11V3.739h1.098v1.113zm-1.098 0H9.902V3.739H11v1.113zm-1.098 0H8.804V3.739h1.098v1.113zm-5.488 0H3.316V3.739h1.098v1.113zm-1.099 0H2.216V3.739h1.098v1.113z" style="fill:var(--color1, #ecd979)"/>
      <path fill="#ecd979" d="M2.218 4.852H1.12V3.739h1.098v1.113zM31.86 3.739h-1.098V2.626h1.098v1.112zm-1.099 0h-1.097V2.626h1.098v1.112zm-1.097 0h-1.098V2.626h1.098v1.112zm-8.784 0h-1.098V2.626h1.098v1.112z" style="fill:var(--color1, #ecd979)"/>
      <path fill="#ecd979" d="M19.783 3.739h-1.098V2.626h1.098v1.112zM18.685 3.739h-1.098V2.626h1.098v1.112zm-2.195 0h-1.098V2.626h1.098v1.112z" style="fill:var(--color1, #ecd979)"/>
      <path fill="#ecd979" d="M15.392 3.739h-1.098V2.626h1.098v1.112z" style="fill:var(--color1, #ecd979)"/>
      <path fill="#ecd979" d="M14.294 3.739h-1.098V2.626h1.098v1.112zm-8.783 0H4.413V2.626h1.098v1.112zm-1.097 0H3.316V2.626h1.098v1.112zm-1.099 0H2.216V2.626h1.098v1.112zm31.837-1.113h-1.098V1.512h1.098v1.114zm-4.391 0h-1.097V1.512h1.098v1.114zm-1.097 0h-1.098V1.512h1.098v1.114zm-1.098 0h-1.098V1.512h1.098v1.114zm-7.686 0h-1.098V1.512h1.098v1.114z" style="fill:var(--color1, #ecd979)"/>
      <path fill="#ecd979" d="M19.783 2.626h-1.098V1.512h1.098v1.114zm-4.391 0h-1.098V1.512h1.098v1.114zM14.294 2.626h-1.098V1.512h1.098v1.114zm-7.685 0H5.511V1.512h1.097v1.114zm-1.098 0H4.413V1.512h1.098v1.114zm-1.097 0H3.316V1.512h1.098v1.114zm30.738-1.113h-1.098V.4h1.098v1.113z" style="fill:var(--color1, #ecd979)"/>
      <path fill="#ecd979" d="M34.055 1.513h-1.098V.4h1.098v1.113zm-4.391 0h-1.098V.4h1.098v1.113zm-1.098 0h-1.098V.4h1.098v1.113zm-1.098 0H26.37V.4h1.098v1.113zm-6.588 0h-1.098V.4h1.098v1.113zm-6.586 0h-1.098V.4h1.098v1.113zm-6.588 0H6.608V.4h1.098v1.113zm-1.097 0H5.511V.4h1.097v1.113zm-1.098 0H4.413V.4h1.098v1.113zm-4.391 0H.022V.4H1.12v1.113z" style="fill:var(--color1, #ecd979)"/>
    </symbol>
    <symbol id="icon-facebook" viewBox="0 0 32 32">
<path fill="#fcf9f9" style="fill: var(--color1, #fcf9f9)" d="M19.52 4.64h0.96v3.6h-1.2c-0.48 0-0.96 0-1.2 0.24s-0.24 0.48-0.24 1.040v1.28h2.64v3.040h-2.64v13.2h-4.080v-13.28h-2.16v-3.040h2.16v-1.040c0-1.76 0.24-3.040 0.72-3.6 0.72-1.040 2.16-1.52 4.32-1.52 0.24 0.080 0.48 0.080 0.72 0.080z"></path>
</symbol>
<symbol id="icon-youtube" viewBox="0 0 32 32">
<path fill="#fcf9f9" style="fill: var(--color1, #fcf9f9)" opacity="0.8" d="M24.24 6c-1.36-0.080-4.16-0.16-8.4-0.16h-0.56c-4.080 0-6.8 0.080-8.16 0.24-1.84 0.16-3.12 0.64-3.84 1.28-0.64 0.56-1.12 1.6-1.28 2.96-0.080 0.88-0.16 2.72-0.16 5.52v0.4c0 2.64 0.080 4.48 0.24 5.36 0.24 1.28 0.64 2.24 1.44 2.8 0.8 0.64 2.16 1.040 4.080 1.2 1.36 0.080 4.16 0.16 8.4 0.16h0.56c4.080 0 6.8-0.080 8.16-0.24 1.84-0.16 3.12-0.64 3.84-1.28 0.64-0.56 1.12-1.6 1.28-2.96 0.080-0.88 0.16-2.72 0.16-5.52v-0.4c0-2.64-0.080-4.48-0.24-5.36-0.24-1.28-0.64-2.24-1.44-2.8-0.8-0.64-2.16-1.040-4.080-1.2zM21.12 15.84l-8.8 5.28v-10.56l8.8 5.28z"></path>
</symbol>
<symbol id="icon-instagram" viewBox="0 0 32 32">
<path fill="#fcf9f9" style="fill: var(--color1, #fcf9f9)" opacity="0.8" d="M28.718 10.755c-0.016-1.134-0.233-2.212-0.617-3.207l0.021 0.063c-0.682-1.722-2.021-3.059-3.7-3.722l-0.044-0.015c-0.921-0.356-1.985-0.573-3.097-0.596l-0.010-0c-1.367-0.061-1.801-0.078-5.271-0.078-3.472 0-3.917 0-5.274 0.078-1.063 0.023-2.113 0.223-3.106 0.597-1.724 0.678-3.064 2.015-3.73 3.693l-0.015 0.044c-0.357 0.918-0.574 1.981-0.596 3.091l-0 0.009c-0.061 1.367-0.080 1.8-0.080 5.265 0 3.466 0 3.909 0.080 5.265 0.023 1.121 0.24 2.184 0.618 3.168l-0.022-0.064c0.682 1.721 2.021 3.058 3.7 3.721l0.044 0.015c0.917 0.369 1.98 0.6 3.091 0.637l0.015 0c1.369 0.062 1.802 0.080 5.274 0.080 3.471 0 3.917 0 5.274-0.080 1.122-0.023 2.187-0.239 3.172-0.616l-0.064 0.022c1.722-0.68 3.061-2.016 3.727-3.693l0.016-0.044c0.374-0.993 0.574-2.040 0.595-3.103 0.062-1.366 0.080-1.799 0.080-5.266-0.003-3.465-0.003-3.905-0.082-5.264zM15.989 22.531c-0.002 0-0.004 0-0.006 0-3.625 0-6.563-2.937-6.566-6.561v-0c0.002-3.624 2.94-6.561 6.565-6.561 0.002 0 0.005 0 0.007 0h-0c3.629 0 6.571 2.937 6.571 6.56-0.003 3.625-2.942 6.562-6.567 6.562-0.002 0-0.003 0-0.005 0h0zM22.823 10.696c-0.845 0-1.53-0.685-1.53-1.53s0.685-1.53 1.53-1.53v0c0.012-0 0.027-0.001 0.042-0.001 0.845 0 1.53 0.685 1.53 1.53s-0.685 1.53-1.53 1.53c-0.015 0-0.029-0-0.044-0.001l0.002 0z"></path>
<path fill="#fcf9f9" style="fill: var(--color1, #fcf9f9)" opacity="0.8" d="M15.992 19.976c0.020 0 0.044 0.001 0.068 0.001 2.212 0 4.005-1.793 4.005-4.005s-1.793-4.005-4.005-4.005c-0.024 0-0.048 0-0.071 0.001l0.004-0c-2.182 0.038-3.937 1.816-3.937 4.004s1.755 3.966 3.933 4.004l0.004 0z"></path>
</symbol>
<symbol id="icon-Nav" viewBox="0 0 47 32">
<path fill="none" stroke="#ecd979" style="stroke: var(--color1, #ecd979)" stroke-linejoin="miter" stroke-linecap="round" stroke-miterlimit="4" stroke-width="3.2" d="M8.742 5.188h36.591M8.742 24.581h36.591M19.965 14.885h25.369"></path>
</symbol>
  </defs>
</svg>
